<svg width="40" height="40" viewBox="0 0 40 40" fill="none" xmlns="http://www.w3.org/2000/svg">
<circle cx="20" cy="20" r="20" fill="white"/>
<path d="M17.5338 12C18.0031 12 18.3911 12.1534 18.6979 12.4603C19.0047 12.7671 19.1582 13.1641 19.1582 13.6513V25.1024C19.1582 25.5716 19.0047 25.9686 18.6979 26.2935C18.3911 26.6003 18.0031 26.7537 17.5338 26.7537C17.0646 26.7537 16.6766 26.6003 16.3698 26.2935C16.063 25.9686 15.9096 25.5716 15.9096 25.1024V23.7759L16.5051 24.0196C16.5051 24.2542 16.3789 24.5429 16.1262 24.8858C15.8735 25.2107 15.5307 25.5355 15.0975 25.8604C14.6643 26.1852 14.15 26.465 13.5544 26.6996C12.9769 26.9162 12.3453 27.0244 11.6595 27.0244C10.4142 27.0244 9.28624 26.7086 8.27559 26.077C7.26494 25.4272 6.46184 24.5429 5.86628 23.424C5.28876 22.287 5 20.9876 5 19.5257C5 18.0459 5.28876 16.7465 5.86628 15.6275C6.46184 14.4906 7.25591 13.6063 8.24852 12.9746C9.24112 12.3249 10.342 12 11.5512 12C12.3272 12 13.0401 12.1173 13.6898 12.3519C14.3395 12.5866 14.8989 12.8844 15.3682 13.2453C15.8555 13.6063 16.2255 13.9762 16.4781 14.3552C16.7488 14.7161 16.8842 15.023 16.8842 15.2757L15.9096 15.6275V13.6513C15.9096 13.1821 16.063 12.7941 16.3698 12.4873C16.6766 12.1625 17.0646 12 17.5338 12ZM12.0655 24.0467C12.8596 24.0467 13.5544 23.8481 14.15 23.451C14.7456 23.054 15.2057 22.5126 15.5307 21.8268C15.8735 21.141 16.045 20.374 16.045 19.5257C16.045 18.6595 15.8735 17.8834 15.5307 17.1976C15.2057 16.5119 14.7456 15.9705 14.15 15.5734C13.5544 15.1764 12.8596 14.9779 12.0655 14.9779C11.2895 14.9779 10.6037 15.1764 10.0081 15.5734C9.41257 15.9705 8.94334 16.5119 8.60043 17.1976C8.27559 17.8834 8.11317 18.6595 8.11317 19.5257C8.11317 20.374 8.27559 21.141 8.60043 21.8268C8.94334 22.5126 9.41257 23.054 10.0081 23.451C10.6037 23.8481 11.2895 24.0467 12.0655 24.0467Z" fill="#F75300"/>
<path d="M23.0074 12.2708C23.3502 12.2708 23.6661 12.3611 23.9548 12.5415C24.2436 12.7039 24.4602 12.9566 24.6045 13.2994L28.5839 22.3954L27.9884 22.6661L32.0491 13.3266C32.3559 12.6046 32.8341 12.2618 33.4838 12.2979C33.935 12.2979 34.2959 12.4423 34.5667 12.731C34.8554 13.0017 34.9998 13.3446 34.9998 13.7597C34.9998 13.886 34.9727 14.0214 34.9186 14.1658C34.8825 14.3101 34.8374 14.4455 34.7832 14.5718L29.721 25.7251C29.4322 26.3748 28.972 26.7177 28.3403 26.7538C27.9975 26.8079 27.6636 26.7447 27.3388 26.5643C27.0319 26.3838 26.7972 26.104 26.6349 25.7251L21.5996 14.5718C21.5636 14.4815 21.5184 14.3642 21.4643 14.2199C21.4282 14.0755 21.4102 13.9041 21.4102 13.7055C21.4102 13.3807 21.5546 13.0648 21.8433 12.758C22.1321 12.4332 22.5201 12.2708 23.0074 12.2708Z" fill="#0A6B6A"/>
<path d="M11.4633 25.6858C14.4909 25.6858 16.9452 22.8809 16.9452 19.4208C16.9452 15.9608 14.4909 13.1558 11.4633 13.1558C8.43576 13.1558 5.98145 15.9608 5.98145 19.4208C5.98145 22.8809 8.43576 25.6858 11.4633 25.6858Z" fill="#F75300"/>
<path d="M13.6847 16.9174C13.1863 16.4191 7.90381 17.4158 7.90381 18.7115C7.90381 19.4092 9.19952 20.4059 9.79755 20.2066C9.89722 20.2066 9.99689 20.1069 10.1962 20.0072C10.4952 19.9076 10.6946 19.8079 10.8939 19.9076C10.9936 20.0072 10.9936 20.2066 10.8939 20.6053C10.8939 20.8046 10.7943 21.0039 10.7943 21.0039C10.5949 21.602 11.6913 22.798 12.389 22.6983C13.585 22.6983 14.183 17.4158 13.6847 16.9174Z" fill="white"/>
</svg>
