<svg width="97" height="33" viewBox="0 0 97 33" fill="none" xmlns="http://www.w3.org/2000/svg">
<path d="M9.53333 12.1975C10.8732 12.1975 11.8872 12.4782 12.5753 13.0395C13.2815 13.6008 13.7613 14.3523 14.0148 15.2938C14.2864 16.2173 14.4222 17.2494 14.4222 18.3901V25.3432C14.4222 25.814 14.2683 26.2123 13.9605 26.5383C13.6527 26.8461 13.2634 27 12.7926 27C12.3218 27 11.9325 26.8461 11.6247 26.5383C11.3169 26.2123 11.163 25.814 11.163 25.3432V18.3901C11.163 17.7926 11.0815 17.2584 10.9185 16.7877C10.7737 16.2988 10.5021 15.9095 10.1037 15.6198C9.70535 15.33 9.13498 15.1852 8.39259 15.1852C7.66831 15.1852 7.05267 15.33 6.54568 15.6198C6.05679 15.9095 5.67654 16.2988 5.40494 16.7877C5.15144 17.2584 5.02469 17.7926 5.02469 18.3901V25.3432C5.02469 25.814 4.87078 26.2123 4.56296 26.5383C4.25514 26.8461 3.86584 27 3.39506 27C2.92428 27 2.53498 26.8461 2.22716 26.5383C1.91934 26.2123 1.76543 25.814 1.76543 25.3432V14.1259C1.76543 13.6551 1.91934 13.2658 2.22716 12.958C2.53498 12.6321 2.92428 12.4691 3.39506 12.4691C3.86584 12.4691 4.25514 12.6321 4.56296 12.958C4.87078 13.2658 5.02469 13.6551 5.02469 14.1259V15.2938L4.61728 15.2123C4.78025 14.9045 5.01564 14.5786 5.32346 14.2346C5.63128 13.8724 5.99342 13.5375 6.40988 13.2296C6.82634 12.9218 7.29712 12.6774 7.82222 12.4963C8.34732 12.2971 8.91769 12.1975 9.53333 12.1975ZM60.7156 12.4691C61.1864 12.4691 61.5757 12.6321 61.8835 12.958C62.1913 13.2658 62.3452 13.6551 62.3452 14.1259V25.6691C62.3452 27.335 62.0283 28.6568 61.3946 29.6346C60.779 30.6305 59.946 31.3457 58.8958 31.7802C57.8456 32.2148 56.6687 32.4321 55.365 32.4321C54.7855 32.4321 54.1699 32.3868 53.518 32.2963C52.8662 32.2058 52.332 32.07 51.9156 31.8889C51.3724 31.6535 50.9921 31.3547 50.7748 30.9926C50.5757 30.6486 50.5394 30.2774 50.6662 29.879C50.8292 29.3539 51.0917 28.9918 51.4539 28.7926C51.816 28.6115 52.1962 28.5934 52.5946 28.7383C52.8843 28.8288 53.2645 28.9646 53.7353 29.1457C54.2061 29.3449 54.7493 29.4444 55.365 29.4444C56.1979 29.4444 56.8859 29.3267 57.4292 29.0914C57.9905 28.8741 58.4069 28.4938 58.6785 27.9506C58.9683 27.4255 59.1131 26.7012 59.1131 25.7778V23.958L59.6835 24.6099C59.3757 25.2074 58.9864 25.7053 58.5156 26.1037C58.0629 26.484 57.5197 26.7737 56.8859 26.9728C56.2522 27.172 55.5279 27.2716 54.7131 27.2716C53.7534 27.2716 52.9115 27.0543 52.1872 26.6198C51.481 26.1671 50.9287 25.5514 50.5304 24.7728C50.132 23.9761 49.9329 23.0708 49.9329 22.0568V14.1259C49.9329 13.6551 50.0868 13.2658 50.3946 12.958C50.7024 12.6321 51.0917 12.4691 51.5625 12.4691C52.0333 12.4691 52.4226 12.6321 52.7304 12.958C53.0382 13.2658 53.1921 13.6551 53.1921 14.1259V21.079C53.1921 22.256 53.4456 23.0889 53.9526 23.5778C54.4777 24.0486 55.202 24.284 56.1255 24.284C56.7592 24.284 57.2934 24.1663 57.7279 23.9309C58.1625 23.6774 58.4975 23.3152 58.7329 22.8444C58.9683 22.3556 59.0859 21.7671 59.0859 21.079V14.1259C59.0859 13.6551 59.2399 13.2658 59.5477 12.958C59.8555 12.6321 60.2448 12.4691 60.7156 12.4691ZM76.6565 12.4691C77.1272 12.4691 77.5165 12.6321 77.8244 12.958C78.1322 13.2658 78.2861 13.6551 78.2861 14.1259V25.6691C78.2861 27.335 77.9692 28.6568 77.3355 29.6346C76.7198 30.6305 75.8869 31.3457 74.8367 31.7802C73.7865 32.2148 72.6095 32.4321 71.3058 32.4321C70.7264 32.4321 70.1108 32.3868 69.4589 32.2963C68.8071 32.2058 68.2729 32.07 67.8565 31.8889C67.3132 31.6535 66.933 31.3547 66.7157 30.9926C66.5165 30.6486 66.4803 30.2774 66.6071 29.879C66.77 29.3539 67.0326 28.9918 67.3947 28.7926C67.7569 28.6115 68.1371 28.5934 68.5355 28.7383C68.8252 28.8288 69.2054 28.9646 69.6762 29.1457C70.147 29.3449 70.6902 29.4444 71.3058 29.4444C72.1388 29.4444 72.8268 29.3267 73.37 29.0914C73.9314 28.8741 74.3478 28.4938 74.6194 27.9506C74.9091 27.4255 75.054 26.7012 75.054 25.7778V23.958L75.6244 24.6099C75.3165 25.2074 74.9272 25.7053 74.4565 26.1037C74.0038 26.484 73.4606 26.7737 72.8268 26.9728C72.1931 27.172 71.4688 27.2716 70.654 27.2716C69.6943 27.2716 68.8523 27.0543 68.1281 26.6198C67.4219 26.1671 66.8696 25.5514 66.4713 24.7728C66.0729 23.9761 65.8737 23.0708 65.8737 22.0568V14.1259C65.8737 13.6551 66.0276 13.2658 66.3355 12.958C66.6433 12.6321 67.0326 12.4691 67.5034 12.4691C67.9742 12.4691 68.3635 12.6321 68.6713 12.958C68.9791 13.2658 69.133 13.6551 69.133 14.1259V21.079C69.133 22.256 69.3865 23.0889 69.8935 23.5778C70.4186 24.0486 71.1429 24.284 72.0663 24.284C72.7001 24.284 73.2342 24.1663 73.6688 23.9309C74.1034 23.6774 74.4383 23.3152 74.6737 22.8444C74.9091 22.3556 75.0268 21.7671 75.0268 21.079V14.1259C75.0268 13.6551 75.1807 13.2658 75.4886 12.958C75.7964 12.6321 76.1857 12.4691 76.6565 12.4691ZM93.7109 12.1975C94.1817 12.1975 94.571 12.3514 94.8788 12.6593C95.1866 12.9671 95.3405 13.3654 95.3405 13.8543V25.3432C95.3405 25.814 95.1866 26.2123 94.8788 26.5383C94.571 26.8461 94.1817 27 93.7109 27C93.2401 27 92.8508 26.8461 92.543 26.5383C92.2352 26.2123 92.0813 25.814 92.0813 25.3432V24.0123L92.6788 24.2568C92.6788 24.4922 92.5521 24.7819 92.2986 25.1259C92.0451 25.4519 91.701 25.7778 91.2665 26.1037C90.8319 26.4296 90.3158 26.7103 89.7183 26.9457C89.1389 27.163 88.5051 27.2716 87.8171 27.2716C86.5677 27.2716 85.436 26.9547 84.422 26.321C83.408 25.6691 82.6023 24.7819 82.0047 23.6593C81.4253 22.5185 81.1356 21.2148 81.1356 19.7481C81.1356 18.2634 81.4253 16.9597 82.0047 15.837C82.6023 14.6963 83.399 13.8091 84.3949 13.1753C85.3907 12.5235 86.4953 12.1975 87.7084 12.1975C88.487 12.1975 89.2023 12.3152 89.8541 12.5506C90.506 12.786 91.0673 13.0848 91.5381 13.4469C92.027 13.8091 92.3981 14.1802 92.6516 14.5605C92.9233 14.9226 93.0591 15.2305 93.0591 15.484L92.0813 15.837V13.8543C92.0813 13.3835 92.2352 12.9942 92.543 12.6864C92.8508 12.3605 93.2401 12.1975 93.7109 12.1975ZM88.2245 24.284C89.0212 24.284 89.7183 24.0848 90.3158 23.6864C90.9134 23.2881 91.3751 22.7449 91.701 22.0568C92.0451 21.3687 92.2171 20.5992 92.2171 19.7481C92.2171 18.879 92.0451 18.1004 91.701 17.4123C91.3751 16.7243 90.9134 16.1811 90.3158 15.7827C89.7183 15.3844 89.0212 15.1852 88.2245 15.1852C87.4459 15.1852 86.7578 15.3844 86.1603 15.7827C85.5628 16.1811 85.092 16.7243 84.7479 17.4123C84.422 18.1004 84.2591 18.879 84.2591 19.7481C84.2591 20.5992 84.422 21.3687 84.7479 22.0568C85.092 22.7449 85.5628 23.2881 86.1603 23.6864C86.7578 24.0848 87.4459 24.284 88.2245 24.284Z" fill="#232323"/>
<path d="M29.8413 12.1975C30.3121 12.1975 30.7014 12.3514 31.0092 12.6593C31.317 12.9671 31.4709 13.3654 31.4709 13.8543V25.3432C31.4709 25.814 31.317 26.2123 31.0092 26.5383C30.7014 26.8461 30.3121 27 29.8413 27C29.3705 27 28.9812 26.8461 28.6734 26.5383C28.3656 26.2123 28.2117 25.814 28.2117 25.3432V24.0123L28.8092 24.2568C28.8092 24.4922 28.6825 24.7819 28.429 25.1259C28.1755 25.4519 27.8314 25.7778 27.3969 26.1037C26.9623 26.4296 26.4463 26.7103 25.8487 26.9457C25.2693 27.163 24.6356 27.2716 23.9475 27.2716C22.6981 27.2716 21.5664 26.9547 20.5524 26.321C19.5384 25.6691 18.7327 24.7819 18.1351 23.6593C17.5557 22.5185 17.266 21.2148 17.266 19.7481C17.266 18.2634 17.5557 16.9597 18.1351 15.837C18.7327 14.6963 19.5294 13.8091 20.5253 13.1753C21.5212 12.5235 22.6257 12.1975 23.8388 12.1975C24.6174 12.1975 25.3327 12.3152 25.9845 12.5506C26.6364 12.786 27.1977 13.0848 27.6685 13.4469C28.1574 13.8091 28.5286 14.1802 28.7821 14.5605C29.0537 14.9226 29.1895 15.2305 29.1895 15.484L28.2117 15.837V13.8543C28.2117 13.3835 28.3656 12.9942 28.6734 12.6864C28.9812 12.3605 29.3705 12.1975 29.8413 12.1975ZM24.3549 24.284C25.1516 24.284 25.8487 24.0848 26.4463 23.6864C27.0438 23.2881 27.5055 22.7449 27.8314 22.0568C28.1755 21.3687 28.3475 20.5992 28.3475 19.7481C28.3475 18.879 28.1755 18.1004 27.8314 17.4123C27.5055 16.7243 27.0438 16.1811 26.4463 15.7827C25.8487 15.3844 25.1516 15.1852 24.3549 15.1852C23.5763 15.1852 22.8882 15.3844 22.2907 15.7827C21.6932 16.1811 21.2224 16.7243 20.8784 17.4123C20.5524 18.1004 20.3895 18.879 20.3895 19.7481C20.3895 20.5992 20.5524 21.3687 20.8784 22.0568C21.2224 22.7449 21.6932 23.2881 22.2907 23.6864C22.8882 24.0848 23.5763 24.284 24.3549 24.284Z" fill="#F75300"/>
<path d="M35.3335 12.4691C35.6775 12.4691 35.9944 12.5597 36.2841 12.7407C36.5738 12.9037 36.7911 13.1572 36.9359 13.5012L40.9285 22.6272L40.331 22.8988L44.4051 13.5284C44.7129 12.8041 45.1927 12.4601 45.8446 12.4963C46.2972 12.4963 46.6594 12.6412 46.931 12.9309C47.2207 13.2025 47.3656 13.5465 47.3656 13.963C47.3656 14.0897 47.3384 14.2255 47.2841 14.3704C47.2479 14.5152 47.2026 14.651 47.1483 14.7778L42.0693 25.9679C41.7796 26.6198 41.3178 26.9638 40.6841 27C40.34 27.0543 40.0051 26.9909 39.6791 26.8099C39.3713 26.6288 39.1359 26.3481 38.973 25.9679L33.9211 14.7778C33.8849 14.6872 33.8396 14.5695 33.7853 14.4247C33.7491 14.2798 33.731 14.1078 33.731 13.9086C33.731 13.5827 33.8759 13.2658 34.1656 12.958C34.4553 12.6321 34.8446 12.4691 35.3335 12.4691Z" fill="#0A6B6A"/>
<ellipse cx="23.5713" cy="19.6429" rx="5.5" ry="6.28571" fill="#F75300"/>
<path d="M25.8 17.1312C25.3 16.6312 20 17.6312 20 18.9312C20 19.6312 21.3 20.6312 21.9 20.4312C22 20.4312 22.1 20.3312 22.3 20.2312C22.6 20.1312 22.8 20.0312 23 20.1312C23.1 20.2312 23.1 20.4312 23 20.8312C23 21.0312 22.9 21.2312 22.9 21.2312C22.7 21.8312 23.8 23.0312 24.5 22.9312C25.7 22.9312 26.3 17.6312 25.8 17.1312Z" fill="white"/>
</svg>
